<mxfile host="app.diagrams.net" modified="2020-12-27T14:37:33.602Z" agent="5.0 (Windows NT 10.0; Win64; x64) AppleWebKit/537.36 (KHTML, like Gecko) Chrome/87.0.4280.88 Safari/537.36" etag="nh4gFGEB8RcH78R-PJfs" version="14.0.0" type="github">
  <diagram id="KCM8j_hjSvXo8HkTO5tl" name="Page-1">
    <mxGraphModel dx="782" dy="380" grid="1" gridSize="10" guides="1" tooltips="1" connect="1" arrows="1" fold="1" page="1" pageScale="1" pageWidth="1169" pageHeight="1654" math="0" shadow="0">
      <root>
        <mxCell id="0" />
        <mxCell id="1" parent="0" />
        <mxCell id="zPySJcfvtIZflKWtnCa5-7" style="rounded=0;orthogonalLoop=1;jettySize=auto;html=1;exitX=0.5;exitY=1;exitDx=0;exitDy=0;entryX=0.5;entryY=0;entryDx=0;entryDy=0;" edge="1" parent="1" source="zPySJcfvtIZflKWtnCa5-1" target="zPySJcfvtIZflKWtnCa5-2">
          <mxGeometry relative="1" as="geometry" />
        </mxCell>
        <mxCell id="zPySJcfvtIZflKWtnCa5-1" value="1" style="ellipse;whiteSpace=wrap;html=1;aspect=fixed;" vertex="1" parent="1">
          <mxGeometry x="90" y="60" width="20" height="20" as="geometry" />
        </mxCell>
        <mxCell id="zPySJcfvtIZflKWtnCa5-8" style="rounded=0;orthogonalLoop=1;jettySize=auto;html=1;exitX=0.5;exitY=1;exitDx=0;exitDy=0;entryX=0.5;entryY=0;entryDx=0;entryDy=0;" edge="1" parent="1" source="zPySJcfvtIZflKWtnCa5-2" target="zPySJcfvtIZflKWtnCa5-3">
          <mxGeometry relative="1" as="geometry" />
        </mxCell>
        <mxCell id="zPySJcfvtIZflKWtnCa5-14" style="edgeStyle=none;rounded=0;orthogonalLoop=1;jettySize=auto;html=1;exitX=1;exitY=0.5;exitDx=0;exitDy=0;entryX=0;entryY=0.5;entryDx=0;entryDy=0;" edge="1" parent="1" source="zPySJcfvtIZflKWtnCa5-2" target="zPySJcfvtIZflKWtnCa5-13">
          <mxGeometry relative="1" as="geometry" />
        </mxCell>
        <mxCell id="zPySJcfvtIZflKWtnCa5-2" value="2" style="ellipse;whiteSpace=wrap;html=1;aspect=fixed;" vertex="1" parent="1">
          <mxGeometry x="90" y="100" width="20" height="20" as="geometry" />
        </mxCell>
        <mxCell id="zPySJcfvtIZflKWtnCa5-9" style="edgeStyle=none;rounded=0;orthogonalLoop=1;jettySize=auto;html=1;exitX=0;exitY=1;exitDx=0;exitDy=0;entryX=1;entryY=0;entryDx=0;entryDy=0;" edge="1" parent="1" source="zPySJcfvtIZflKWtnCa5-3" target="zPySJcfvtIZflKWtnCa5-5">
          <mxGeometry relative="1" as="geometry" />
        </mxCell>
        <mxCell id="zPySJcfvtIZflKWtnCa5-11" style="edgeStyle=none;rounded=0;orthogonalLoop=1;jettySize=auto;html=1;exitX=1;exitY=1;exitDx=0;exitDy=0;entryX=0;entryY=0;entryDx=0;entryDy=0;" edge="1" parent="1" source="zPySJcfvtIZflKWtnCa5-3" target="zPySJcfvtIZflKWtnCa5-4">
          <mxGeometry relative="1" as="geometry" />
        </mxCell>
        <mxCell id="zPySJcfvtIZflKWtnCa5-3" value="3" style="ellipse;whiteSpace=wrap;html=1;aspect=fixed;" vertex="1" parent="1">
          <mxGeometry x="90" y="140" width="20" height="20" as="geometry" />
        </mxCell>
        <mxCell id="zPySJcfvtIZflKWtnCa5-12" style="edgeStyle=none;rounded=0;orthogonalLoop=1;jettySize=auto;html=1;exitX=0.5;exitY=1;exitDx=0;exitDy=0;entryX=0;entryY=0.5;entryDx=0;entryDy=0;" edge="1" parent="1" source="zPySJcfvtIZflKWtnCa5-4" target="zPySJcfvtIZflKWtnCa5-2">
          <mxGeometry relative="1" as="geometry">
            <Array as="points">
              <mxPoint x="140" y="220" />
              <mxPoint x="40" y="220" />
              <mxPoint x="40" y="110" />
            </Array>
          </mxGeometry>
        </mxCell>
        <mxCell id="zPySJcfvtIZflKWtnCa5-4" value="5" style="ellipse;whiteSpace=wrap;html=1;aspect=fixed;" vertex="1" parent="1">
          <mxGeometry x="130" y="180" width="20" height="20" as="geometry" />
        </mxCell>
        <mxCell id="zPySJcfvtIZflKWtnCa5-5" value="4" style="ellipse;whiteSpace=wrap;html=1;aspect=fixed;" vertex="1" parent="1">
          <mxGeometry x="50" y="180" width="20" height="20" as="geometry" />
        </mxCell>
        <mxCell id="zPySJcfvtIZflKWtnCa5-16" style="edgeStyle=none;rounded=0;orthogonalLoop=1;jettySize=auto;html=1;exitX=1;exitY=0.5;exitDx=0;exitDy=0;entryX=0;entryY=0.5;entryDx=0;entryDy=0;" edge="1" parent="1" source="zPySJcfvtIZflKWtnCa5-13" target="zPySJcfvtIZflKWtnCa5-15">
          <mxGeometry relative="1" as="geometry" />
        </mxCell>
        <mxCell id="zPySJcfvtIZflKWtnCa5-41" style="edgeStyle=none;rounded=0;orthogonalLoop=1;jettySize=auto;html=1;exitX=0.5;exitY=0;exitDx=0;exitDy=0;entryX=0.5;entryY=0;entryDx=0;entryDy=0;" edge="1" parent="1" source="zPySJcfvtIZflKWtnCa5-13" target="zPySJcfvtIZflKWtnCa5-34">
          <mxGeometry relative="1" as="geometry">
            <Array as="points">
              <mxPoint x="160" y="80" />
              <mxPoint x="530" y="80" />
            </Array>
          </mxGeometry>
        </mxCell>
        <mxCell id="zPySJcfvtIZflKWtnCa5-13" value="6" style="ellipse;whiteSpace=wrap;html=1;aspect=fixed;" vertex="1" parent="1">
          <mxGeometry x="150" y="100" width="20" height="20" as="geometry" />
        </mxCell>
        <mxCell id="zPySJcfvtIZflKWtnCa5-26" style="edgeStyle=none;rounded=0;orthogonalLoop=1;jettySize=auto;html=1;exitX=1;exitY=0.5;exitDx=0;exitDy=0;entryX=0;entryY=0.5;entryDx=0;entryDy=0;" edge="1" parent="1" source="zPySJcfvtIZflKWtnCa5-15" target="zPySJcfvtIZflKWtnCa5-17">
          <mxGeometry relative="1" as="geometry" />
        </mxCell>
        <mxCell id="zPySJcfvtIZflKWtnCa5-15" value="7" style="ellipse;whiteSpace=wrap;html=1;aspect=fixed;" vertex="1" parent="1">
          <mxGeometry x="210" y="100" width="20" height="20" as="geometry" />
        </mxCell>
        <mxCell id="zPySJcfvtIZflKWtnCa5-27" style="edgeStyle=none;rounded=0;orthogonalLoop=1;jettySize=auto;html=1;exitX=1;exitY=0.5;exitDx=0;exitDy=0;entryX=0;entryY=0.5;entryDx=0;entryDy=0;" edge="1" parent="1" source="zPySJcfvtIZflKWtnCa5-17" target="zPySJcfvtIZflKWtnCa5-20">
          <mxGeometry relative="1" as="geometry" />
        </mxCell>
        <mxCell id="zPySJcfvtIZflKWtnCa5-30" style="edgeStyle=none;rounded=0;orthogonalLoop=1;jettySize=auto;html=1;exitX=0.5;exitY=1;exitDx=0;exitDy=0;entryX=0.5;entryY=0;entryDx=0;entryDy=0;" edge="1" parent="1" source="zPySJcfvtIZflKWtnCa5-17" target="zPySJcfvtIZflKWtnCa5-19">
          <mxGeometry relative="1" as="geometry" />
        </mxCell>
        <mxCell id="zPySJcfvtIZflKWtnCa5-17" value="8" style="ellipse;whiteSpace=wrap;html=1;aspect=fixed;" vertex="1" parent="1">
          <mxGeometry x="270" y="100" width="20" height="20" as="geometry" />
        </mxCell>
        <mxCell id="zPySJcfvtIZflKWtnCa5-19" value="9" style="ellipse;whiteSpace=wrap;html=1;aspect=fixed;" vertex="1" parent="1">
          <mxGeometry x="270" y="140" width="20" height="20" as="geometry" />
        </mxCell>
        <mxCell id="zPySJcfvtIZflKWtnCa5-28" style="edgeStyle=none;rounded=0;orthogonalLoop=1;jettySize=auto;html=1;exitX=1;exitY=0.5;exitDx=0;exitDy=0;entryX=0;entryY=0.5;entryDx=0;entryDy=0;" edge="1" parent="1" source="zPySJcfvtIZflKWtnCa5-20" target="zPySJcfvtIZflKWtnCa5-21">
          <mxGeometry relative="1" as="geometry" />
        </mxCell>
        <mxCell id="zPySJcfvtIZflKWtnCa5-31" style="edgeStyle=none;rounded=0;orthogonalLoop=1;jettySize=auto;html=1;exitX=0.5;exitY=1;exitDx=0;exitDy=0;entryX=0.5;entryY=0;entryDx=0;entryDy=0;" edge="1" parent="1" source="zPySJcfvtIZflKWtnCa5-20" target="zPySJcfvtIZflKWtnCa5-23">
          <mxGeometry relative="1" as="geometry" />
        </mxCell>
        <mxCell id="zPySJcfvtIZflKWtnCa5-20" value="10" style="ellipse;whiteSpace=wrap;html=1;aspect=fixed;" vertex="1" parent="1">
          <mxGeometry x="330" y="100" width="20" height="20" as="geometry" />
        </mxCell>
        <mxCell id="zPySJcfvtIZflKWtnCa5-29" style="edgeStyle=none;rounded=0;orthogonalLoop=1;jettySize=auto;html=1;exitX=1;exitY=0.5;exitDx=0;exitDy=0;entryX=0;entryY=0.5;entryDx=0;entryDy=0;" edge="1" parent="1" source="zPySJcfvtIZflKWtnCa5-21" target="zPySJcfvtIZflKWtnCa5-22">
          <mxGeometry relative="1" as="geometry" />
        </mxCell>
        <mxCell id="zPySJcfvtIZflKWtnCa5-32" style="edgeStyle=none;rounded=0;orthogonalLoop=1;jettySize=auto;html=1;exitX=0.5;exitY=1;exitDx=0;exitDy=0;entryX=0.5;entryY=0;entryDx=0;entryDy=0;" edge="1" parent="1" source="zPySJcfvtIZflKWtnCa5-21" target="zPySJcfvtIZflKWtnCa5-24">
          <mxGeometry relative="1" as="geometry" />
        </mxCell>
        <mxCell id="zPySJcfvtIZflKWtnCa5-21" value="12" style="ellipse;whiteSpace=wrap;html=1;aspect=fixed;" vertex="1" parent="1">
          <mxGeometry x="390" y="100" width="20" height="20" as="geometry" />
        </mxCell>
        <mxCell id="zPySJcfvtIZflKWtnCa5-33" style="edgeStyle=none;rounded=0;orthogonalLoop=1;jettySize=auto;html=1;exitX=0.5;exitY=1;exitDx=0;exitDy=0;entryX=0.5;entryY=1;entryDx=0;entryDy=0;" edge="1" parent="1" source="zPySJcfvtIZflKWtnCa5-22" target="zPySJcfvtIZflKWtnCa5-13">
          <mxGeometry relative="1" as="geometry">
            <Array as="points">
              <mxPoint x="460" y="180" />
              <mxPoint x="160" y="180" />
            </Array>
          </mxGeometry>
        </mxCell>
        <mxCell id="zPySJcfvtIZflKWtnCa5-22" value="14" style="ellipse;whiteSpace=wrap;html=1;aspect=fixed;" vertex="1" parent="1">
          <mxGeometry x="450" y="100" width="20" height="20" as="geometry" />
        </mxCell>
        <mxCell id="zPySJcfvtIZflKWtnCa5-23" value="11" style="ellipse;whiteSpace=wrap;html=1;aspect=fixed;" vertex="1" parent="1">
          <mxGeometry x="330" y="140" width="20" height="20" as="geometry" />
        </mxCell>
        <mxCell id="zPySJcfvtIZflKWtnCa5-24" value="13" style="ellipse;whiteSpace=wrap;html=1;aspect=fixed;" vertex="1" parent="1">
          <mxGeometry x="390" y="140" width="20" height="20" as="geometry" />
        </mxCell>
        <mxCell id="zPySJcfvtIZflKWtnCa5-43" style="edgeStyle=none;rounded=0;orthogonalLoop=1;jettySize=auto;html=1;exitX=0;exitY=1;exitDx=0;exitDy=0;entryX=1;entryY=0;entryDx=0;entryDy=0;" edge="1" parent="1" source="zPySJcfvtIZflKWtnCa5-34" target="zPySJcfvtIZflKWtnCa5-36">
          <mxGeometry relative="1" as="geometry" />
        </mxCell>
        <mxCell id="zPySJcfvtIZflKWtnCa5-44" style="edgeStyle=none;rounded=0;orthogonalLoop=1;jettySize=auto;html=1;exitX=1;exitY=1;exitDx=0;exitDy=0;entryX=0;entryY=0;entryDx=0;entryDy=0;" edge="1" parent="1" source="zPySJcfvtIZflKWtnCa5-34" target="zPySJcfvtIZflKWtnCa5-37">
          <mxGeometry relative="1" as="geometry" />
        </mxCell>
        <mxCell id="zPySJcfvtIZflKWtnCa5-34" value="15" style="ellipse;whiteSpace=wrap;html=1;aspect=fixed;" vertex="1" parent="1">
          <mxGeometry x="520" y="100" width="20" height="20" as="geometry" />
        </mxCell>
        <mxCell id="zPySJcfvtIZflKWtnCa5-36" value="16" style="ellipse;whiteSpace=wrap;html=1;aspect=fixed;" vertex="1" parent="1">
          <mxGeometry x="480" y="140" width="20" height="20" as="geometry" />
        </mxCell>
        <mxCell id="zPySJcfvtIZflKWtnCa5-45" style="edgeStyle=none;rounded=0;orthogonalLoop=1;jettySize=auto;html=1;exitX=0;exitY=1;exitDx=0;exitDy=0;entryX=1;entryY=0;entryDx=0;entryDy=0;" edge="1" parent="1" source="zPySJcfvtIZflKWtnCa5-37" target="zPySJcfvtIZflKWtnCa5-39">
          <mxGeometry relative="1" as="geometry" />
        </mxCell>
        <mxCell id="zPySJcfvtIZflKWtnCa5-46" style="edgeStyle=none;rounded=0;orthogonalLoop=1;jettySize=auto;html=1;exitX=0.5;exitY=1;exitDx=0;exitDy=0;entryX=0.5;entryY=0;entryDx=0;entryDy=0;" edge="1" parent="1" source="zPySJcfvtIZflKWtnCa5-37" target="zPySJcfvtIZflKWtnCa5-38">
          <mxGeometry relative="1" as="geometry" />
        </mxCell>
        <mxCell id="zPySJcfvtIZflKWtnCa5-37" value="17" style="ellipse;whiteSpace=wrap;html=1;aspect=fixed;" vertex="1" parent="1">
          <mxGeometry x="560" y="140" width="20" height="20" as="geometry" />
        </mxCell>
        <mxCell id="zPySJcfvtIZflKWtnCa5-38" value="18" style="ellipse;whiteSpace=wrap;html=1;aspect=fixed;" vertex="1" parent="1">
          <mxGeometry x="560" y="200" width="20" height="20" as="geometry" />
        </mxCell>
        <mxCell id="zPySJcfvtIZflKWtnCa5-39" value="19" style="ellipse;whiteSpace=wrap;html=1;aspect=fixed;" vertex="1" parent="1">
          <mxGeometry x="500" y="200" width="20" height="20" as="geometry" />
        </mxCell>
        <mxCell id="zPySJcfvtIZflKWtnCa5-47" value="R1" style="text;html=1;align=center;verticalAlign=middle;resizable=0;points=[];autosize=1;" vertex="1" parent="1">
          <mxGeometry x="85" y="190" width="30" height="20" as="geometry" />
        </mxCell>
        <mxCell id="zPySJcfvtIZflKWtnCa5-48" value="R2" style="text;html=1;align=center;verticalAlign=middle;resizable=0;points=[];autosize=1;" vertex="1" parent="1">
          <mxGeometry x="205" y="140" width="30" height="20" as="geometry" />
        </mxCell>
        <mxCell id="zPySJcfvtIZflKWtnCa5-49" value="R3" style="text;html=1;align=center;verticalAlign=middle;resizable=0;points=[];autosize=1;" vertex="1" parent="1">
          <mxGeometry x="300" y="200" width="30" height="20" as="geometry" />
        </mxCell>
      </root>
    </mxGraphModel>
  </diagram>
</mxfile>
